<svg width="745" height="639" fill="none" xmlns="http://www.w3.org/2000/svg"><path fill-rule="evenodd" clip-rule="evenodd" d="m450.212 218.378 9.533-20.428H580.95l-98.053 197.47-97.714-195.767-66.39 133.121-12.257-23.151 78.5-157.976 97.861 195.086 63.667-128.014-96.352-.341Z" fill="#fff"/><path fill-rule="evenodd" clip-rule="evenodd" d="M320.641 167.28H198.073l138.045 278.5 66.575-133.122 11.916 23.492-78.477 157.636L164 146.852h146.427l10.214 20.428Z" fill="#fff"/><path d="m481.538 160.072.374-.248-.206-.399c-.822-1.593-1.958-2.888-3.36-3.822-1.568-1.046-3.437-1.558-5.535-1.558-2.807 0-5.094.82-6.919 2.486-1.835 1.627-2.769 3.831-2.769 6.465 0 2.24.787 4.194 2.417 5.72.991.938 2.472 1.849 4.505 2.791l.001.001 2.947 1.375h.001c2.017.935 3.227 1.644 3.802 2.174l.002.003c.969.88 1.458 2.019 1.458 3.462 0 1.7-.547 3.1-1.587 4.231l-.007.008c-1.013 1.145-2.483 1.747-4.49 1.747-1.802 0-3.239-.549-4.359-1.667-.998-1.045-1.596-2.369-1.829-3.902l-.084-.558-.544.151-3.538.983-.458.127.104.464c.558 2.483 1.629 4.542 3.186 6.047 1.926 1.873 4.416 2.795 7.473 2.795 3.112 0 5.696-.974 7.764-2.939 2.075-1.971 3.104-4.514 3.104-7.634 0-2.53-.832-4.626-2.505-6.299-1.098-1.098-2.886-2.159-5.211-3.198l-.003-.002-3.142-1.374c-1.615-.735-2.72-1.392-3.289-1.961l-.006-.005-.005-.005c-.734-.691-1.071-1.492-1.071-2.486 0-1.404.446-2.489 1.358-3.314.921-.834 2.119-1.247 3.645-1.247 1.374 0 2.488.363 3.371 1.02.683.594 1.278 1.327 1.787 2.299l.257.49.462-.305 2.899-1.916Zm14.963 11.024h.5v-4.243h-3.538v-7.37h-4.537v7.37h-2.162v4.243h2.162v17.148h4.537v-17.148h3.038Zm8.276-3.756v-.5h-4.538v12.784c0 2.817.653 5.026 2.001 6.481h-.001l.004.004c1.725 1.83 3.925 2.712 6.604 2.712 2.678 0 4.878-.882 6.603-2.712l.004-.004c1.347-1.455 2-3.664 2-6.481V166.84h-4.538v12.391c0 2.032-.343 3.363-.876 4.064-.727.895-1.754 1.381-3.193 1.381-1.44 0-2.467-.486-3.194-1.381-.533-.701-.876-2.032-.876-4.064V167.34Zm35.079-15.855h-.5v17.493c-1.702-1.702-3.862-2.556-6.477-2.556-2.927 0-5.363.982-7.375 2.943l-.005.005c-2.028 2.028-3.045 4.769-3.045 8.215 0 3.491 1.015 6.283 3.045 8.313 2.015 2.015 4.503 2.996 7.38 2.996 2.587 0 4.745-.862 6.477-2.605v2.016h4.538v-36.82h-4.038Zm-11.063 31.284-.006-.008c-1.134-1.314-1.697-3.007-1.697-5.176 0-2.269.612-3.992 1.819-5.199 1.187-1.187 2.633-1.819 4.363-1.819 1.633 0 3.083.584 4.37 1.825 1.254 1.21 1.911 2.933 1.911 5.242 0 2.015-.56 3.714-1.702 5.085-1.125 1.349-2.649 2.031-4.579 2.031-1.929 0-3.404-.682-4.479-1.981Zm21.338-15.785h-.5v21.391h4.538v-21.391h-4.038Zm-1.237-7.215c0 .822.299 1.539.883 2.123a2.913 2.913 0 0 0 2.123.883 2.91 2.91 0 0 0 2.122-.883 2.914 2.914 0 0 0 .884-2.123c0-.822-.3-1.538-.884-2.122a2.91 2.91 0 0 0-2.122-.883c-.822 0-1.539.299-2.123.883a2.91 2.91 0 0 0-.883 2.122Zm30.434 25.875.004-.005c2.115-2.114 3.193-4.8 3.193-8.018 0-3.216-1.076-5.952-3.193-8.068l-.004-.004c-2.163-2.112-4.895-3.189-8.113-3.189-3.215 0-5.949 1.076-8.065 3.191-2.168 2.117-3.244 4.854-3.244 8.07 0 3.218 1.078 5.905 3.244 8.02 2.116 2.116 4.85 3.191 8.065 3.191 3.218 0 5.95-1.077 8.113-3.188Zm-8.113-15.139c1.884 0 3.432.637 4.766 1.877 1.252 1.209 1.908 2.931 1.908 5.239 0 2.258-.655 3.977-1.954 5.186-1.336 1.244-2.886 1.881-4.72 1.881-1.834 0-3.384-.637-4.72-1.881-1.298-1.209-1.953-2.928-1.953-5.186 0-2.256.654-3.981 1.96-5.242 1.281-1.236 2.827-1.874 4.713-1.874Z" fill="#fff" stroke="#fff"/><path fill="#F6FA1C" d="M83.133 91.267 415.031.423l26.4 96.452-331.898 90.844z"/><circle cx="133.648" cy="131.162" r="10" transform="rotate(3.564 133.648 131.162)" fill="#121212"/><path d="m183.271 141.617-25.159-40.889 7.809-2.137 17.644 29.675.058-34.454 7.792-2.199 17.644 29.675.042-34.516 7.809-2.137-.799 47.993-7.345 2.011-17.756-29.113-.393 34.08-7.346 2.011Zm50.116-13.717-12.166-44.445 18.365-5.027c.432-.118.993-.25 1.684-.394a13.428 13.428 0 0 1 1.933-.33c2.679-.313 5.032-.04 7.059.821 2.048.855 3.749 2.181 5.103 3.978 1.37 1.77 2.39 3.88 3.06 6.329.664 2.428.861 4.763.59 7.005a12.444 12.444 0 0 1-2.405 5.999c-1.307 1.774-3.182 3.205-5.626 4.294-.554.24-1.175.476-1.863.709-.668.227-1.208.397-1.619.51l-10.926 2.99 4.249 15.525-7.438 2.036Zm1.288-24.505 10.617-2.907c.412-.112.869-.26 1.372-.441a7.568 7.568 0 0 0 1.352-.636c1.151-.647 1.968-1.457 2.454-2.43a6.856 6.856 0 0 0 .786-3.068 10.065 10.065 0 0 0-.331-3.028 10.05 10.05 0 0 0-1.257-2.775 6.83 6.83 0 0 0-2.248-2.271c-.913-.59-2.03-.871-3.349-.842a6.262 6.262 0 0 0-1.479.173c-.525.1-.994.206-1.405.318l-10.618 2.906 4.106 15.001Zm47.794 11.004-1.774-6.481 14.375-22.149c1.121-1.722 1.809-3.249 2.064-4.58.255-1.33.233-2.54-.065-3.631-.406-1.482-1.085-2.711-2.038-3.689a7.44 7.44 0 0 0-3.415-2.051c-1.297-.375-2.676-.363-4.137.037-1.543.423-2.813 1.157-3.809 2.204a7.77 7.77 0 0 0-1.978 3.56 7.427 7.427 0 0 0 .113 4.05l-7.655 2.096c-.811-2.963-.859-5.726-.145-8.288.735-2.568 2.099-4.777 4.092-6.627 2.013-1.856 4.553-3.204 7.619-4.043 2.839-.778 5.566-.838 8.178-.182a14.28 14.28 0 0 1 6.776 3.786c1.904 1.867 3.254 4.251 4.048 7.153.58 2.12.779 3.978.597 5.576-.182 1.598-.683 3.162-1.503 4.691-.799 1.524-1.84 3.257-3.121 5.2l-10.219 15.637-1.186-1.666 21.852-5.981 1.918 7.006-30.587 8.372Z" fill="#000"/><path stroke="#121212" stroke-width="6" d="m375.213 65.082 55.003-14.955"/><path d="m20.615 616.022-19.182-66.24h8.556l14.72 52.394 14.674-52.348 8.602-.046 14.72 52.394 14.674-52.394h8.602l-19.182 66.24H58.61l-14.904-51.934-14.904 51.934h-8.188Zm89.253 1.38c-4.876 0-9.138-1.073-12.788-3.22-3.618-2.177-6.44-5.198-8.464-9.062-2.024-3.894-3.036-8.433-3.036-13.616 0-5.428.997-10.12 2.99-14.076 1.994-3.986 4.77-7.053 8.326-9.2 3.588-2.177 7.79-3.266 12.604-3.266 4.999 0 9.246 1.15 12.742 3.45 3.527 2.3 6.164 5.582 7.912 9.844 1.779 4.263 2.546 9.338 2.3 15.226h-8.28v-2.944c-.092-6.102-1.334-10.656-3.726-13.662-2.392-3.036-5.949-4.554-10.672-4.554-5.06 0-8.908 1.626-11.546 4.876-2.637 3.251-3.956 7.912-3.956 13.984 0 5.858 1.32 10.396 3.956 13.616 2.638 3.22 6.394 4.83 11.27 4.83 3.282 0 6.134-.751 8.556-2.254 2.423-1.502 4.324-3.664 5.704-6.486l7.866 2.714c-1.932 4.386-4.845 7.79-8.74 10.212-3.864 2.392-8.203 3.588-13.018 3.588Zm-18.354-23.92v-6.578h36.708v6.578H91.514Zm73.998 23.92c-4.661 0-8.587-1.15-11.776-3.45-3.189-2.33-5.612-5.474-7.268-9.43-1.625-3.986-2.438-8.448-2.438-13.386 0-4.998.813-9.476 2.438-13.432 1.656-3.956 4.079-7.068 7.268-9.338 3.22-2.269 7.161-3.404 11.822-3.404 4.6 0 8.556 1.15 11.868 3.45 3.343 2.27 5.903 5.382 7.682 9.338 1.779 3.956 2.668 8.418 2.668 13.386s-.889 9.43-2.668 13.386c-1.779 3.956-4.339 7.1-7.682 9.43-3.312 2.3-7.283 3.45-11.914 3.45Zm-22.862-1.38v-66.24h8.234v29.67h-.92v36.57h-7.314Zm21.85-6.118c3.281 0 5.995-.828 8.142-2.484 2.147-1.656 3.757-3.894 4.83-6.716 1.073-2.852 1.61-6.041 1.61-9.568 0-3.496-.537-6.654-1.61-9.476-1.043-2.821-2.668-5.06-4.876-6.716-2.177-1.656-4.953-2.484-8.326-2.484-3.22 0-5.888.798-8.004 2.392-2.116 1.564-3.695 3.757-4.738 6.578-1.043 2.791-1.564 6.026-1.564 9.706 0 3.619.506 6.854 1.518 9.706 1.043 2.822 2.637 5.045 4.784 6.67 2.147 1.595 4.891 2.392 8.234 2.392Zm46.767 6.118-22.172-66.24h8.51l19.274 57.546 19.458-57.546h8.51l-22.172 66.24h-11.408Zm50.488 1.38c-3.71 0-6.823-.674-9.338-2.024-2.484-1.38-4.37-3.189-5.658-5.428-1.257-2.238-1.886-4.692-1.886-7.36 0-2.606.491-4.86 1.472-6.762a13.227 13.227 0 0 1 4.232-4.784c1.81-1.288 3.972-2.3 6.486-3.036 2.362-.644 4.999-1.196 7.912-1.656 2.944-.49 5.919-.935 8.924-1.334 3.006-.398 5.812-.782 8.418-1.15l-2.944 1.702c.092-4.416-.797-7.682-2.668-9.798-1.84-2.116-5.029-3.174-9.568-3.174-3.005 0-5.642.69-7.912 2.07-2.238 1.35-3.818 3.558-4.738 6.624l-7.774-2.346c1.196-4.354 3.512-7.774 6.946-10.258 3.435-2.484 7.958-3.726 13.57-3.726 4.508 0 8.372.813 11.592 2.438 3.251 1.595 5.582 4.018 6.992 7.268.706 1.534 1.15 3.205 1.334 5.014.184 1.779.276 3.65.276 5.612v30.728h-7.268v-11.914l1.702 1.104c-1.87 4.018-4.492 7.054-7.866 9.108-3.342 2.055-7.421 3.082-12.236 3.082Zm1.242-6.854c2.944 0 5.49-.521 7.636-1.564 2.178-1.073 3.926-2.468 5.244-4.186 1.319-1.748 2.178-3.649 2.576-5.704.46-1.533.706-3.235.736-5.106.062-1.901.092-3.358.092-4.37l2.852 1.242c-2.668.368-5.29.721-7.866 1.058a181.32 181.32 0 0 0-7.314 1.104c-2.3.368-4.37.813-6.21 1.334-1.349.43-2.622.982-3.818 1.656a8.685 8.685 0 0 0-2.852 2.622c-.705 1.043-1.058 2.346-1.058 3.91 0 1.35.338 2.638 1.012 3.864.706 1.227 1.779 2.224 3.22 2.99 1.472.767 3.389 1.15 5.75 1.15Zm37.306 5.474v-67.62h8.188v67.62h-8.188Zm22.911 0v-67.62h8.188v67.62h-8.188Zm43.518 1.38c-4.876 0-9.139-1.073-12.788-3.22-3.619-2.177-6.44-5.198-8.464-9.062-2.024-3.894-3.036-8.433-3.036-13.616 0-5.428.996-10.12 2.99-14.076 1.993-3.986 4.768-7.053 8.326-9.2 3.588-2.177 7.789-3.266 12.604-3.266 4.998 0 9.246 1.15 12.742 3.45 3.526 2.3 6.164 5.582 7.912 9.844 1.778 4.263 2.545 9.338 2.3 15.226h-8.28v-2.944c-.092-6.102-1.334-10.656-3.726-13.662-2.392-3.036-5.95-4.554-10.672-4.554-5.06 0-8.909 1.626-11.546 4.876-2.638 3.251-3.956 7.912-3.956 13.984 0 5.858 1.318 10.396 3.956 13.616 2.637 3.22 6.394 4.83 11.27 4.83 3.281 0 6.133-.751 8.556-2.254 2.422-1.502 4.324-3.664 5.704-6.486l7.866 2.714c-1.932 4.386-4.846 7.79-8.74 10.212-3.864 2.392-8.204 3.588-13.018 3.588Zm-18.354-23.92v-6.578h36.708v6.578h-36.708Zm57.183 44.62 9.614-26.128.138 7.728-21.712-53.36h8.602l17.02 42.918h-2.944l15.962-42.918h8.326l-27.048 71.76h-7.958Zm84.528-20.7c-4.692 0-8.924-.797-12.696-2.392-3.742-1.594-6.839-3.864-9.292-6.808-2.423-2.974-4.002-6.486-4.738-10.534l8.464-1.334c1.073 4.171 3.296 7.437 6.67 9.798 3.404 2.331 7.406 3.496 12.006 3.496 2.974 0 5.658-.46 8.05-1.38 2.422-.95 4.339-2.3 5.75-4.048 1.41-1.748 2.116-3.818 2.116-6.21 0-1.472-.261-2.729-.782-3.772a7.554 7.554 0 0 0-2.07-2.714 12.274 12.274 0 0 0-2.944-1.932 22.238 22.238 0 0 0-3.45-1.288l-16.882-5.014a36.237 36.237 0 0 1-5.336-2.07 19.422 19.422 0 0 1-4.6-3.174c-1.35-1.288-2.423-2.821-3.22-4.6-.798-1.809-1.196-3.94-1.196-6.394 0-3.925 1.012-7.268 3.036-10.028 2.054-2.79 4.83-4.922 8.326-6.394 3.496-1.472 7.436-2.192 11.822-2.162 4.446.031 8.418.828 11.914 2.392 3.526 1.534 6.44 3.742 8.74 6.624 2.33 2.883 3.894 6.333 4.692 10.35l-8.694 1.518c-.46-2.698-1.488-5.014-3.082-6.946-1.564-1.962-3.527-3.465-5.888-4.508-2.362-1.073-4.953-1.625-7.774-1.656-2.699-.03-5.137.399-7.314 1.288-2.178.89-3.91 2.132-5.198 3.726-1.288 1.564-1.932 3.374-1.932 5.428 0 2.024.582 3.665 1.748 4.922 1.165 1.227 2.591 2.208 4.278 2.944a46.463 46.463 0 0 0 5.014 1.748l12.604 3.634c1.441.399 3.097.951 4.968 1.656 1.901.706 3.741 1.702 5.52 2.99 1.778 1.258 3.25 2.944 4.416 5.06 1.165 2.086 1.748 4.723 1.748 7.912 0 3.19-.644 6.026-1.932 8.51-1.258 2.484-3.021 4.57-5.29 6.256-2.27 1.656-4.907 2.914-7.912 3.772-3.006.89-6.226 1.334-9.66 1.334Zm62.181-1.38a36.785 36.785 0 0 1-8.74.69c-2.852-.092-5.398-.659-7.636-1.702-2.239-1.073-3.941-2.729-5.106-4.968-.982-1.962-1.518-3.94-1.61-5.934a226.258 226.258 0 0 1-.092-6.854v-44.712h8.188v44.344c0 2.024.015 3.757.046 5.198.061 1.442.383 2.684.966 3.726 1.104 1.963 2.852 3.113 5.244 3.45 2.422.338 5.336.246 8.74-.276v7.038Zm-33.258-42.918v-6.762h33.258v6.762h-33.258Zm62.204 44.206c-3.189 0-5.934-.506-8.234-1.518-2.269-1.012-4.155-2.361-5.658-4.048a19.935 19.935 0 0 1-3.542-5.612 28.977 28.977 0 0 1-1.84-6.302c-.337-2.146-.506-4.155-.506-6.026v-27.462h8.28v24.886a34.9 34.9 0 0 0 .644 6.762c.429 2.178 1.15 4.14 2.162 5.888 1.043 1.748 2.423 3.128 4.14 4.14 1.748 1.012 3.925 1.518 6.532 1.518 2.055 0 3.925-.352 5.612-1.058a11.53 11.53 0 0 0 4.324-3.128c1.196-1.41 2.116-3.189 2.76-5.336.644-2.146.966-4.646.966-7.498l5.382 1.656c0 4.784-.874 8.909-2.622 12.374-1.717 3.466-4.155 6.134-7.314 8.004-3.128 1.84-6.823 2.76-11.086 2.76Zm16.56-1.288v-13.294h-.92v-36.386h8.234v49.68h-7.314Zm39.697 1.38c-4.63 0-8.602-1.15-11.914-3.45-3.312-2.33-5.872-5.474-7.682-9.43-1.778-3.956-2.668-8.418-2.668-13.386s.89-9.43 2.668-13.386c1.81-3.956 4.37-7.068 7.682-9.338 3.312-2.3 7.268-3.45 11.868-3.45 4.692 0 8.633 1.135 11.822 3.404 3.19 2.27 5.597 5.382 7.222 9.338 1.656 3.956 2.484 8.434 2.484 13.432 0 4.938-.828 9.4-2.484 13.386-1.625 3.956-4.032 7.1-7.222 9.43-3.189 2.3-7.114 3.45-11.776 3.45Zm1.012-7.498c3.343 0 6.088-.797 8.234-2.392 2.147-1.625 3.726-3.848 4.738-6.67 1.043-2.852 1.564-6.087 1.564-9.706 0-3.68-.521-6.915-1.564-9.706-1.012-2.821-2.576-5.014-4.692-6.578-2.116-1.594-4.799-2.392-8.05-2.392-3.373 0-6.164.828-8.372 2.484-2.177 1.656-3.802 3.895-4.876 6.716-1.042 2.822-1.564 5.98-1.564 9.476 0 3.527.537 6.716 1.61 9.568 1.074 2.822 2.684 5.06 4.83 6.716 2.178 1.656 4.892 2.484 8.142 2.484Zm14.536 6.118v-36.57h-.92v-29.67h8.234v66.24h-7.314Zm21.122-58.466v-8.464h8.188v8.464h-8.188Zm0 58.466v-49.68h8.188v49.68h-8.188Zm43.15 1.38c-4.937 0-9.2-1.119-12.788-3.358-3.557-2.238-6.302-5.336-8.234-9.292-1.932-3.956-2.898-8.494-2.898-13.616 0-5.213.982-9.782 2.944-13.708 1.963-3.925 4.738-6.976 8.326-9.154 3.588-2.208 7.805-3.312 12.65-3.312 4.968 0 9.246 1.12 12.834 3.358 3.588 2.208 6.333 5.29 8.234 9.246 1.932 3.926 2.898 8.449 2.898 13.57 0 5.183-.966 9.752-2.898 13.708-1.932 3.926-4.692 7.008-8.28 9.246-3.588 2.208-7.85 3.312-12.788 3.312Zm0-7.774c5.152 0 8.986-1.717 11.5-5.152 2.515-3.434 3.772-7.881 3.772-13.34 0-5.612-1.272-10.074-3.818-13.386-2.545-3.342-6.363-5.014-11.454-5.014-3.465 0-6.317.782-8.556 2.346-2.238 1.564-3.91 3.726-5.014 6.486s-1.656 5.95-1.656 9.568c0 5.582 1.288 10.059 3.864 13.432 2.576 3.374 6.364 5.06 11.362 5.06Z" fill="#fff"/></svg>