<svg width="745" height="639" viewBox="0 0 745 639" fill="none" xmlns="http://www.w3.org/2000/svg">
<path fill-rule="evenodd" clip-rule="evenodd" d="M450.212 218.378L459.745 197.95H580.95L482.897 395.42L385.183 199.653L318.793 332.774L306.536 309.623L385.036 151.647L482.897 346.733L546.564 218.719L450.212 218.378Z" fill="white"/>
<path fill-rule="evenodd" clip-rule="evenodd" d="M320.641 167.28H198.073L336.118 445.78L402.693 312.658L414.609 336.15L336.132 493.786L164 146.852H310.427L320.641 167.28Z" fill="white"/>
<path d="M481.538 160.072L481.912 159.824L481.706 159.425C480.884 157.832 479.748 156.537 478.346 155.603C476.778 154.557 474.909 154.045 472.811 154.045C470.004 154.045 467.717 154.865 465.892 156.531C464.057 158.158 463.123 160.362 463.123 162.996C463.123 165.236 463.91 167.19 465.54 168.716C466.531 169.654 468.012 170.565 470.045 171.507C470.045 171.507 470.046 171.507 470.046 171.508L472.993 172.883L472.994 172.883C475.011 173.818 476.221 174.527 476.796 175.057L476.798 175.06C477.767 175.94 478.256 177.079 478.256 178.522C478.256 180.222 477.709 181.622 476.669 182.753L476.669 182.753L476.662 182.761C475.649 183.906 474.179 184.508 472.172 184.508C470.37 184.508 468.933 183.959 467.813 182.841C466.815 181.796 466.217 180.472 465.984 178.939L465.9 178.381L465.356 178.532L461.818 179.515L461.36 179.642L461.464 180.106C462.022 182.589 463.093 184.648 464.65 186.153C466.576 188.026 469.066 188.948 472.123 188.948C475.235 188.948 477.819 187.974 479.887 186.009C481.962 184.038 482.991 181.495 482.991 178.375C482.991 175.845 482.159 173.749 480.486 172.076C479.388 170.978 477.6 169.917 475.275 168.878L475.272 168.876L472.13 167.502C470.515 166.767 469.41 166.11 468.841 165.541L468.835 165.536L468.83 165.531C468.096 164.84 467.759 164.039 467.759 163.045C467.759 161.641 468.205 160.556 469.117 159.731C470.038 158.897 471.236 158.484 472.762 158.484C474.136 158.484 475.25 158.847 476.133 159.504C476.816 160.098 477.411 160.831 477.92 161.803L478.177 162.293L478.639 161.988L481.538 160.072Z" fill="white" stroke="white"/>
<path d="M496.501 171.096H497.001V170.596V167.353V166.853H496.501H493.463V159.983V159.483H492.963H489.426H488.926V159.983V166.853H487.264H486.764V167.353V170.596V171.096H487.264H488.926V187.744V188.244H489.426H492.963H493.463V187.744V171.096H496.501Z" fill="white" stroke="white"/>
<path d="M504.777 167.34V166.84H504.277H500.739H500.239V167.34V179.624C500.239 182.441 500.892 184.65 502.24 186.105L502.239 186.105L502.243 186.109C503.968 187.939 506.168 188.821 508.847 188.821C511.525 188.821 513.725 187.939 515.45 186.109L515.45 186.109L515.454 186.105C516.801 184.65 517.454 182.441 517.454 179.624V167.34V166.84H516.954H513.416H512.916V167.34V179.231C512.916 181.263 512.573 182.594 512.04 183.295C511.313 184.19 510.286 184.676 508.847 184.676C507.407 184.676 506.38 184.19 505.653 183.295C505.12 182.594 504.777 181.263 504.777 179.231V167.34Z" fill="white" stroke="white"/>
<path d="M539.856 151.485H539.356V151.985V168.978C537.654 167.276 535.494 166.422 532.879 166.422C529.952 166.422 527.516 167.404 525.504 169.365L525.504 169.365L525.499 169.37C523.471 171.398 522.454 174.139 522.454 177.585C522.454 181.076 523.469 183.868 525.499 185.898C527.514 187.913 530.002 188.894 532.879 188.894C535.466 188.894 537.624 188.032 539.356 186.289V187.805V188.305H539.856H543.394H543.894V187.805V151.985V151.485H543.394H539.856ZM528.793 182.769L528.793 182.769L528.787 182.761C527.653 181.447 527.09 179.754 527.09 177.585C527.09 175.316 527.702 173.593 528.909 172.386C530.096 171.199 531.542 170.567 533.272 170.567C534.905 170.567 536.355 171.151 537.642 172.392C538.896 173.602 539.553 175.325 539.553 177.634C539.553 179.649 538.993 181.348 537.851 182.719C536.726 184.068 535.202 184.75 533.272 184.75C531.343 184.75 529.868 184.068 528.793 182.769Z" fill="white" stroke="white"/>
<path d="M550.131 166.984H549.631V167.484V187.875V188.375H550.131H553.669H554.169V187.875V167.484V166.984H553.669H550.131ZM548.894 159.769C548.894 160.591 549.193 161.308 549.777 161.892C550.361 162.476 551.078 162.775 551.9 162.775C552.722 162.775 553.438 162.476 554.022 161.892C554.606 161.308 554.906 160.591 554.906 159.769C554.906 158.947 554.606 158.231 554.022 157.647C553.438 157.063 552.722 156.764 551.9 156.764C551.078 156.764 550.361 157.063 549.777 157.647C549.193 158.231 548.894 158.947 548.894 159.769Z" fill="white" stroke="white"/>
<path d="M575.981 172.382C574.647 171.142 573.099 170.505 571.215 170.505C569.329 170.505 567.783 171.143 566.502 172.379L575.981 172.382ZM575.981 172.382C577.233 173.591 577.889 175.313 577.889 177.621C577.889 179.879 577.234 181.598 575.935 182.807C574.599 184.051 573.049 184.688 571.215 184.688C569.381 184.688 567.831 184.051 566.495 182.807C565.197 181.598 564.542 179.879 564.542 177.621C564.542 175.366 565.195 173.64 566.502 172.379L575.981 172.382ZM579.328 185.644L579.328 185.644L579.332 185.639C581.447 183.525 582.525 180.839 582.525 177.621C582.525 174.405 581.449 171.669 579.332 169.553L579.332 169.553L579.328 169.549C577.165 167.437 574.433 166.36 571.215 166.36C568 166.36 565.266 167.436 563.15 169.551C560.982 171.668 559.906 174.405 559.906 177.621C559.906 180.839 560.984 183.526 563.15 185.641C565.266 187.757 568 188.832 571.215 188.832C574.433 188.832 577.165 187.755 579.328 185.644Z" fill="white" stroke="white"/>
<rect x="83.1335" y="91.267" width="344.106" height="100" transform="rotate(-15.3076 83.1335 91.267)" fill="#F6FA1C"/>
<circle cx="133.648" cy="131.162" r="10" transform="rotate(3.56413 133.648 131.162)" fill="#121212"/>
<path d="M192.476 140.093C189.595 140.882 186.751 141.118 183.944 140.803C181.152 140.461 178.529 139.564 176.075 138.113C173.641 136.655 171.498 134.643 169.645 132.076C167.787 129.488 166.351 126.342 165.337 122.639C164.008 117.782 163.778 113.389 164.648 109.457C165.513 105.504 167.269 102.181 169.916 99.4884C172.557 96.7748 175.853 94.8774 179.804 93.796C185.277 92.2979 189.957 92.3881 193.845 94.0666C197.748 95.719 200.893 98.6845 203.281 102.963L196.017 106.245C194.453 103.842 192.5 102.121 190.158 101.081C187.811 100.02 185.156 99.8954 182.193 100.706C179.198 101.482 176.896 102.809 175.287 104.687C173.677 106.565 172.701 108.856 172.357 111.56C172.034 114.258 172.317 117.233 173.207 120.484C174.097 123.735 175.365 126.429 177.012 128.567C178.653 130.683 180.644 132.14 182.986 132.937C185.348 133.728 188.026 133.736 191.021 132.96C193.269 132.367 195.125 131.428 196.587 130.143C198.043 128.837 199.075 127.195 199.683 125.214C200.286 123.214 200.423 120.887 200.095 118.234L192.256 120.38L190.659 114.546L206.4 110.238C206.531 110.556 206.694 111.031 206.889 111.663C207.085 112.295 207.199 112.673 207.233 112.797C208.382 116.994 208.571 120.957 207.8 124.685C207.043 128.387 205.375 131.586 202.796 134.282C200.216 136.979 196.776 138.916 192.476 140.093ZM236.531 128.035C232.992 129.003 229.678 129.136 226.588 128.434C223.519 127.726 220.865 126.273 218.627 124.077C216.41 121.875 214.82 119.014 213.856 115.496L206.228 87.6251L213.742 85.502L221.337 113.249C221.793 114.916 222.479 116.332 223.395 117.497C224.332 118.656 225.41 119.566 226.631 120.227C227.846 120.868 229.145 121.253 230.53 121.383C231.915 121.513 233.276 121.394 234.613 121.028C235.992 120.651 237.234 120.057 238.339 119.246C239.459 118.408 240.379 117.404 241.098 116.234C241.812 115.044 242.266 113.714 242.461 112.245C242.656 110.776 242.528 109.218 242.078 107.572L234.483 79.825L242.014 77.7637L249.66 105.696C250.623 109.215 250.7 112.489 249.893 115.519C249.106 118.543 247.562 121.145 245.261 123.323C242.98 125.495 240.07 127.066 236.531 128.035ZM262.697 119.877L250.532 75.4321L257.971 73.3962L268.227 110.866L287.857 105.493L289.766 112.468L262.697 119.877ZM294.27 111.236L282.105 66.7904L300.469 61.7638C300.902 61.6455 301.463 61.514 302.153 61.3693C302.838 61.204 303.482 61.094 304.087 61.0392C306.766 60.7261 309.119 61 311.146 61.8607C313.194 62.7157 314.895 64.0417 316.249 65.8385C317.618 67.6092 318.638 69.7188 319.308 72.1674C319.973 74.5954 320.17 76.9303 319.899 79.1721C319.622 81.3933 318.82 83.3933 317.493 85.172C316.187 86.9451 314.312 88.3763 311.867 89.4656C311.314 89.7056 310.693 89.9419 310.004 90.1746C309.336 90.4016 308.797 90.5714 308.385 90.684L297.459 93.6746L301.709 109.2L294.27 111.236ZM295.558 86.7301L306.176 83.824C306.587 83.7113 307.045 83.564 307.548 83.3821C308.051 83.2001 308.502 82.9883 308.9 82.7465C310.05 82.1 310.868 81.29 311.354 80.3166C311.86 79.3376 312.122 78.3148 312.139 77.2483C312.178 76.1761 312.067 75.1668 311.808 74.2203C311.549 73.2738 311.13 72.3489 310.551 71.4457C309.987 70.5163 309.238 69.7592 308.304 69.1744C307.39 68.584 306.274 68.3034 304.955 68.3327C304.489 68.3275 303.996 68.385 303.476 68.5053C302.95 68.6049 302.482 68.7111 302.07 68.8237L291.453 71.7298L295.558 86.7301ZM352.32 95.3466L342.377 59.0188L335.438 66.3924L333.19 58.1824L340.155 50.9014L347.748 48.8232L359.913 93.2684L352.32 95.3466Z" fill="black"/>
<line x1="375.213" y1="65.0821" x2="430.216" y2="50.1275" stroke="#121212" stroke-width="6"/>
<path d="M20.6147 616.022L1.43273 549.782H9.98873L24.7087 602.176L39.3827 549.828L47.9847 549.782L62.7047 602.176L77.3787 549.782H85.9807L66.7987 616.022H58.6107L43.7067 564.088L28.8027 616.022H20.6147ZM109.868 617.402C104.992 617.402 100.73 616.329 97.0804 614.182C93.4617 612.005 90.6404 608.984 88.6164 605.12C86.5924 601.226 85.5804 596.687 85.5804 591.504C85.5804 586.076 86.5771 581.384 88.5704 577.428C90.5637 573.442 93.3391 570.375 96.8964 568.228C100.484 566.051 104.686 564.962 109.5 564.962C114.499 564.962 118.746 566.112 122.242 568.412C125.769 570.712 128.406 573.994 130.154 578.256C131.933 582.519 132.7 587.594 132.454 593.482H124.174V590.538C124.082 584.436 122.84 579.882 120.448 576.876C118.056 573.84 114.499 572.322 109.776 572.322C104.716 572.322 100.868 573.948 98.2304 577.198C95.5931 580.449 94.2744 585.11 94.2744 591.182C94.2744 597.04 95.5931 601.578 98.2304 604.798C100.868 608.018 104.624 609.628 109.5 609.628C112.782 609.628 115.634 608.877 118.056 607.374C120.479 605.872 122.38 603.71 123.76 600.888L131.626 603.602C129.694 607.988 126.781 611.392 122.886 613.814C119.022 616.206 114.683 617.402 109.868 617.402ZM91.5144 593.482V586.904H128.222V593.482H91.5144ZM165.512 617.402C160.851 617.402 156.925 616.252 153.736 613.952C150.547 611.622 148.124 608.478 146.468 604.522C144.843 600.536 144.03 596.074 144.03 591.136C144.03 586.138 144.843 581.66 146.468 577.704C148.124 573.748 150.547 570.636 153.736 568.366C156.956 566.097 160.897 564.962 165.558 564.962C170.158 564.962 174.114 566.112 177.426 568.412C180.769 570.682 183.329 573.794 185.108 577.75C186.887 581.706 187.776 586.168 187.776 591.136C187.776 596.104 186.887 600.566 185.108 604.522C183.329 608.478 180.769 611.622 177.426 613.952C174.114 616.252 170.143 617.402 165.512 617.402ZM142.65 616.022V549.782H150.884V579.452H149.964V616.022H142.65ZM164.5 609.904C167.781 609.904 170.495 609.076 172.642 607.42C174.789 605.764 176.399 603.526 177.472 600.704C178.545 597.852 179.082 594.663 179.082 591.136C179.082 587.64 178.545 584.482 177.472 581.66C176.429 578.839 174.804 576.6 172.596 574.944C170.419 573.288 167.643 572.46 164.27 572.46C161.05 572.46 158.382 573.258 156.266 574.852C154.15 576.416 152.571 578.609 151.528 581.43C150.485 584.221 149.964 587.456 149.964 591.136C149.964 594.755 150.47 597.99 151.482 600.842C152.525 603.664 154.119 605.887 156.266 607.512C158.413 609.107 161.157 609.904 164.5 609.904ZM211.267 616.022L189.095 549.782H197.605L216.879 607.328L236.337 549.782H244.847L222.675 616.022H211.267ZM261.755 617.402C258.045 617.402 254.932 616.728 252.417 615.378C249.933 613.998 248.047 612.189 246.759 609.95C245.502 607.712 244.873 605.258 244.873 602.59C244.873 599.984 245.364 597.73 246.345 595.828C247.357 593.896 248.768 592.302 250.577 591.044C252.387 589.756 254.549 588.744 257.063 588.008C259.425 587.364 262.062 586.812 264.975 586.352C267.919 585.862 270.894 585.417 273.899 585.018C276.905 584.62 279.711 584.236 282.317 583.868L279.373 585.57C279.465 581.154 278.576 577.888 276.705 575.772C274.865 573.656 271.676 572.598 267.137 572.598C264.132 572.598 261.495 573.288 259.225 574.668C256.987 576.018 255.407 578.226 254.487 581.292L246.713 578.946C247.909 574.592 250.225 571.172 253.659 568.688C257.094 566.204 261.617 564.962 267.229 564.962C271.737 564.962 275.601 565.775 278.821 567.4C282.072 568.995 284.403 571.418 285.813 574.668C286.519 576.202 286.963 577.873 287.147 579.682C287.331 581.461 287.423 583.332 287.423 585.294V616.022H280.155V604.108L281.857 605.212C279.987 609.23 277.365 612.266 273.991 614.32C270.649 616.375 266.57 617.402 261.755 617.402ZM262.997 610.548C265.941 610.548 268.487 610.027 270.633 608.984C272.811 607.911 274.559 606.516 275.877 604.798C277.196 603.05 278.055 601.149 278.453 599.094C278.913 597.561 279.159 595.859 279.189 593.988C279.251 592.087 279.281 590.63 279.281 589.618L282.133 590.86C279.465 591.228 276.843 591.581 274.267 591.918C271.691 592.256 269.253 592.624 266.953 593.022C264.653 593.39 262.583 593.835 260.743 594.356C259.394 594.786 258.121 595.338 256.925 596.012C255.76 596.687 254.809 597.561 254.073 598.634C253.368 599.677 253.015 600.98 253.015 602.544C253.015 603.894 253.353 605.182 254.027 606.408C254.733 607.635 255.806 608.632 257.247 609.398C258.719 610.165 260.636 610.548 262.997 610.548ZM300.303 616.022V548.402H308.491V616.022H300.303ZM323.214 616.022V548.402H331.402V616.022H323.214ZM366.732 617.402C361.856 617.402 357.593 616.329 353.944 614.182C350.325 612.005 347.504 608.984 345.48 605.12C343.456 601.226 342.444 596.687 342.444 591.504C342.444 586.076 343.44 581.384 345.434 577.428C347.427 573.442 350.202 570.375 353.76 568.228C357.348 566.051 361.549 564.962 366.364 564.962C371.362 564.962 375.61 566.112 379.106 568.412C382.632 570.712 385.27 573.994 387.018 578.256C388.796 582.519 389.563 587.594 389.318 593.482H381.038V590.538C380.946 584.436 379.704 579.882 377.312 576.876C374.92 573.84 371.362 572.322 366.64 572.322C361.58 572.322 357.731 573.948 355.094 577.198C352.456 580.449 351.138 585.11 351.138 591.182C351.138 597.04 352.456 601.578 355.094 604.798C357.731 608.018 361.488 609.628 366.364 609.628C369.645 609.628 372.497 608.877 374.92 607.374C377.342 605.872 379.244 603.71 380.624 600.888L388.49 603.602C386.558 607.988 383.644 611.392 379.75 613.814C375.886 616.206 371.546 617.402 366.732 617.402ZM348.378 593.482V586.904H385.086V593.482H348.378ZM405.561 638.102L415.175 611.974L415.313 619.702L393.601 566.342H402.203L419.223 609.26H416.279L432.241 566.342H440.567L413.519 638.102H405.561ZM490.089 617.402C485.397 617.402 481.165 616.605 477.393 615.01C473.651 613.416 470.554 611.146 468.101 608.202C465.678 605.228 464.099 601.716 463.363 597.668L471.827 596.334C472.9 600.505 475.123 603.771 478.497 606.132C481.901 608.463 485.903 609.628 490.503 609.628C493.477 609.628 496.161 609.168 498.553 608.248C500.975 607.298 502.892 605.948 504.303 604.2C505.713 602.452 506.419 600.382 506.419 597.99C506.419 596.518 506.158 595.261 505.637 594.218C505.146 593.145 504.456 592.24 503.567 591.504C502.708 590.738 501.727 590.094 500.623 589.572C499.519 589.051 498.369 588.622 497.173 588.284L480.291 583.27C478.451 582.718 476.672 582.028 474.955 581.2C473.237 580.342 471.704 579.284 470.355 578.026C469.005 576.738 467.932 575.205 467.135 573.426C466.337 571.617 465.939 569.486 465.939 567.032C465.939 563.107 466.951 559.764 468.975 557.004C471.029 554.214 473.805 552.082 477.301 550.61C480.797 549.138 484.737 548.418 489.123 548.448C493.569 548.479 497.541 549.276 501.037 550.84C504.563 552.374 507.477 554.582 509.777 557.464C512.107 560.347 513.671 563.797 514.469 567.814L505.775 569.332C505.315 566.634 504.287 564.318 502.693 562.386C501.129 560.424 499.166 558.921 496.805 557.878C494.443 556.805 491.852 556.253 489.031 556.222C486.332 556.192 483.894 556.621 481.717 557.51C479.539 558.4 477.807 559.642 476.519 561.236C475.231 562.8 474.587 564.61 474.587 566.664C474.587 568.688 475.169 570.329 476.335 571.586C477.5 572.813 478.926 573.794 480.613 574.53C482.33 575.236 484.001 575.818 485.627 576.278L498.231 579.912C499.672 580.311 501.328 580.863 503.199 581.568C505.1 582.274 506.94 583.27 508.719 584.558C510.497 585.816 511.969 587.502 513.135 589.618C514.3 591.704 514.883 594.341 514.883 597.53C514.883 600.72 514.239 603.556 512.951 606.04C511.693 608.524 509.93 610.61 507.661 612.296C505.391 613.952 502.754 615.21 499.749 616.068C496.743 616.958 493.523 617.402 490.089 617.402ZM552.27 616.022C549.326 616.605 546.412 616.835 543.53 616.712C540.678 616.62 538.132 616.053 535.894 615.01C533.655 613.937 531.953 612.281 530.788 610.042C529.806 608.08 529.27 606.102 529.178 604.108C529.116 602.084 529.086 599.8 529.086 597.254V552.542H537.274V596.886C537.274 598.91 537.289 600.643 537.32 602.084C537.381 603.526 537.703 604.768 538.286 605.81C539.39 607.773 541.138 608.923 543.53 609.26C545.952 609.598 548.866 609.506 552.27 608.984V616.022ZM519.012 573.104V566.342H552.27V573.104H519.012ZM581.216 617.31C578.027 617.31 575.282 616.804 572.982 615.792C570.713 614.78 568.827 613.431 567.324 611.744C565.821 610.058 564.641 608.187 563.782 606.132C562.923 604.078 562.31 601.977 561.942 599.83C561.605 597.684 561.436 595.675 561.436 593.804V566.342H569.716V591.228C569.716 593.559 569.931 595.813 570.36 597.99C570.789 600.168 571.51 602.13 572.522 603.878C573.565 605.626 574.945 607.006 576.662 608.018C578.41 609.03 580.587 609.536 583.194 609.536C585.249 609.536 587.119 609.184 588.806 608.478C590.493 607.773 591.934 606.73 593.13 605.35C594.326 603.94 595.246 602.161 595.89 600.014C596.534 597.868 596.856 595.368 596.856 592.516L602.238 594.172C602.238 598.956 601.364 603.081 599.616 606.546C597.899 610.012 595.461 612.68 592.302 614.55C589.174 616.39 585.479 617.31 581.216 617.31ZM597.776 616.022V602.728H596.856V566.342H605.09V616.022H597.776ZM637.473 617.402C632.843 617.402 628.871 616.252 625.559 613.952C622.247 611.622 619.687 608.478 617.877 604.522C616.099 600.566 615.209 596.104 615.209 591.136C615.209 586.168 616.099 581.706 617.877 577.75C619.687 573.794 622.247 570.682 625.559 568.412C628.871 566.112 632.827 564.962 637.427 564.962C642.119 564.962 646.06 566.097 649.249 568.366C652.439 570.636 654.846 573.748 656.471 577.704C658.127 581.66 658.955 586.138 658.955 591.136C658.955 596.074 658.127 600.536 656.471 604.522C654.846 608.478 652.439 611.622 649.249 613.952C646.06 616.252 642.135 617.402 637.473 617.402ZM638.485 609.904C641.828 609.904 644.573 609.107 646.719 607.512C648.866 605.887 650.445 603.664 651.457 600.842C652.5 597.99 653.021 594.755 653.021 591.136C653.021 587.456 652.5 584.221 651.457 581.43C650.445 578.609 648.881 576.416 646.765 574.852C644.649 573.258 641.966 572.46 638.715 572.46C635.342 572.46 632.551 573.288 630.343 574.944C628.166 576.6 626.541 578.839 625.467 581.66C624.425 584.482 623.903 587.64 623.903 591.136C623.903 594.663 624.44 597.852 625.513 600.704C626.587 603.526 628.197 605.764 630.343 607.42C632.521 609.076 635.235 609.904 638.485 609.904ZM653.021 616.022V579.452H652.101V549.782H660.335V616.022H653.021ZM674.143 557.556V549.092H682.331V557.556H674.143ZM674.143 616.022V566.342H682.331V616.022H674.143ZM717.293 617.402C712.356 617.402 708.093 616.283 704.505 614.044C700.948 611.806 698.203 608.708 696.271 604.752C694.339 600.796 693.373 596.258 693.373 591.136C693.373 585.923 694.355 581.354 696.317 577.428C698.28 573.503 701.055 570.452 704.643 568.274C708.231 566.066 712.448 564.962 717.293 564.962C722.261 564.962 726.539 566.082 730.127 568.32C733.715 570.528 736.46 573.61 738.361 577.566C740.293 581.492 741.259 586.015 741.259 591.136C741.259 596.319 740.293 600.888 738.361 604.844C736.429 608.77 733.669 611.852 730.081 614.09C726.493 616.298 722.231 617.402 717.293 617.402ZM717.293 609.628C722.445 609.628 726.279 607.911 728.793 604.476C731.308 601.042 732.565 596.595 732.565 591.136C732.565 585.524 731.293 581.062 728.747 577.75C726.202 574.408 722.384 572.736 717.293 572.736C713.828 572.736 710.976 573.518 708.737 575.082C706.499 576.646 704.827 578.808 703.723 581.568C702.619 584.328 702.067 587.518 702.067 591.136C702.067 596.718 703.355 601.195 705.931 604.568C708.507 607.942 712.295 609.628 717.293 609.628Z" fill="white"/>
</svg>
